#define iconify_width 6
#define iconify_height 6
static unsigned char iconify_bits[] = {
   0x00, 0x2a, 0x00, 0x2a, 0x00, 0x0a };
